<svg width="17" height="17" viewBox="0 0 17 17" fill="none" xmlns="http://www.w3.org/2000/svg">
<path d="M8.25 0.5C6.66775 0.5 5.12103 0.969192 3.80544 1.84824C2.48985 2.72729 1.46447 3.97672 0.858967 5.43853C0.253466 6.90034 0.0950396 8.50887 0.403721 10.0607C0.712403 11.6126 1.47433 13.038 2.59315 14.1569C3.71197 15.2757 5.13743 16.0376 6.68928 16.3463C8.24113 16.655 9.84966 16.4965 11.3115 15.891C12.7733 15.2855 14.0227 14.2602 14.9018 12.9446C15.7808 11.629 16.25 10.0822 16.25 8.5C16.2478 6.37895 15.4042 4.34542 13.9044 2.84562C12.4046 1.34581 10.371 0.50224 8.25 0.5ZM8.25 15.2692C6.91117 15.2692 5.60241 14.8722 4.48922 14.1284C3.37603 13.3846 2.5084 12.3274 1.99605 11.0905C1.4837 9.85356 1.34965 8.49249 1.61084 7.17939C1.87203 5.86629 2.51674 4.66012 3.46343 3.71343C4.41013 2.76674 5.61629 2.12203 6.92939 1.86084C8.24249 1.59965 9.60356 1.7337 10.8405 2.24605C12.0774 2.75839 13.1346 3.62602 13.8784 4.73922C14.6222 5.85241 15.0192 7.16117 15.0192 8.5C15.0172 10.2947 14.3034 12.0153 13.0343 13.2843C11.7653 14.5534 10.0447 15.2672 8.25 15.2692ZM11.9423 8.5C11.9423 8.66321 11.8775 8.81973 11.7621 8.93514C11.6467 9.05055 11.4901 9.11538 11.3269 9.11538H8.86539V11.5769C8.86539 11.7401 8.80055 11.8967 8.68514 12.0121C8.56974 12.1275 8.41321 12.1923 8.25 12.1923C8.08679 12.1923 7.93027 12.1275 7.81486 12.0121C7.69945 11.8967 7.63462 11.7401 7.63462 11.5769V9.11538H5.17308C5.00987 9.11538 4.85334 9.05055 4.73794 8.93514C4.62253 8.81973 4.55769 8.66321 4.55769 8.5C4.55769 8.33679 4.62253 8.18026 4.73794 8.06486C4.85334 7.94945 5.00987 7.88461 5.17308 7.88461H7.63462V5.42308C7.63462 5.25987 7.69945 5.10334 7.81486 4.98793C7.93027 4.87253 8.08679 4.80769 8.25 4.80769C8.41321 4.80769 8.56974 4.87253 8.68514 4.98793C8.80055 5.10334 8.86539 5.25987 8.86539 5.42308V7.88461H11.3269C11.4901 7.88461 11.6467 7.94945 11.7621 8.06486C11.8775 8.18026 11.9423 8.33679 11.9423 8.5Z" fill="#364153"/>
</svg>
