<svg width="17" height="17" viewBox="0 0 17 17" fill="none" xmlns="http://www.w3.org/2000/svg">
<path d="M6 0.5H1.5C1.10218 0.5 0.720644 0.658035 0.43934 0.93934C0.158035 1.22064 0 1.60218 0 2V6.5C0 6.89782 0.158035 7.27936 0.43934 7.56066C0.720644 7.84196 1.10218 8 1.5 8H6C6.39782 8 6.77936 7.84196 7.06066 7.56066C7.34196 7.27936 7.5 6.89782 7.5 6.5V2C7.5 1.60218 7.34196 1.22064 7.06066 0.93934C6.77936 0.658035 6.39782 0.5 6 0.5ZM6 6.5H1.5V2H6V6.5ZM15 0.5H10.5C10.1022 0.5 9.72064 0.658035 9.43934 0.93934C9.15804 1.22064 9 1.60218 9 2V6.5C9 6.89782 9.15804 7.27936 9.43934 7.56066C9.72064 7.84196 10.1022 8 10.5 8H15C15.3978 8 15.7794 7.84196 16.0607 7.56066C16.342 7.27936 16.5 6.89782 16.5 6.5V2C16.5 1.60218 16.342 1.22064 16.0607 0.93934C15.7794 0.658035 15.3978 0.5 15 0.5ZM15 6.5H10.5V2H15V6.5ZM6 9.5H1.5C1.10218 9.5 0.720644 9.65804 0.43934 9.93934C0.158035 10.2206 0 10.6022 0 11V15.5C0 15.8978 0.158035 16.2794 0.43934 16.5607C0.720644 16.842 1.10218 17 1.5 17H6C6.39782 17 6.77936 16.842 7.06066 16.5607C7.34196 16.2794 7.5 15.8978 7.5 15.5V11C7.5 10.6022 7.34196 10.2206 7.06066 9.93934C6.77936 9.65804 6.39782 9.5 6 9.5ZM6 15.5H1.5V11H6V15.5ZM15 9.5H10.5C10.1022 9.5 9.72064 9.65804 9.43934 9.93934C9.15804 10.2206 9 10.6022 9 11V15.5C9 15.8978 9.15804 16.2794 9.43934 16.5607C9.72064 16.842 10.1022 17 10.5 17H15C15.3978 17 15.7794 16.842 16.0607 16.5607C16.342 16.2794 16.5 15.8978 16.5 15.5V11C16.5 10.6022 16.342 10.2206 16.0607 9.93934C15.7794 9.65804 15.3978 9.5 15 9.5ZM15 15.5H10.5V11H15V15.5Z" fill="#4F39F6"/>
</svg>
