<svg width="18" height="17" viewBox="0 0 18 17" fill="none" xmlns="http://www.w3.org/2000/svg">
<path d="M17.75 8.17865C17.749 7.16059 17.3506 6.18454 16.6424 5.46466C15.9341 4.74479 14.9738 4.3399 13.9722 4.33884H10.8398C10.6108 4.32524 6.61972 4.03965 2.81912 0.799812C2.63559 0.643142 2.41188 0.542961 2.17428 0.511038C1.93667 0.479115 1.69504 0.516776 1.47776 0.619596C1.26048 0.722416 1.07658 0.886126 0.947671 1.09149C0.818758 1.29686 0.750182 1.53536 0.75 1.77896V14.5783C0.750033 14.822 0.8185 15.0606 0.947354 15.2661C1.07621 15.4716 1.2601 15.6354 1.4774 15.7383C1.69471 15.8413 1.9364 15.879 2.17408 15.8471C2.41176 15.8152 2.63554 15.715 2.81912 15.5583C5.79176 13.024 8.87931 12.2976 10.1944 12.0945V14.6319C10.1942 14.8428 10.2452 15.0506 10.343 15.2366C10.4407 15.4226 10.5822 15.5812 10.7548 15.6983L11.6206 16.2847C11.7879 16.3982 11.9796 16.4693 12.1795 16.492C12.3794 16.5148 12.5818 16.4885 12.7697 16.4155C12.9576 16.3424 13.1255 16.2246 13.2594 16.072C13.3934 15.9194 13.4893 15.7364 13.5394 15.5383L14.4657 11.9897C15.3745 11.8668 16.2085 11.4126 16.8126 10.7116C17.4167 10.0106 17.7498 9.11053 17.75 8.17865ZM2.00926 14.5727V1.77896C5.37856 4.65162 8.82736 5.37879 10.1944 5.55798V10.7961C8.82893 10.9785 5.38093 11.7041 2.00926 14.5727ZM12.3194 15.2127V15.2215L11.4537 14.6351V12.0185H13.1537L12.3194 15.2127ZM13.9722 10.7385H11.4537V5.61877H13.9722C14.6402 5.61877 15.2808 5.88847 15.7531 6.36854C16.2254 6.84861 16.4907 7.49973 16.4907 8.17865C16.4907 8.85757 16.2254 9.50868 15.7531 9.98875C15.2808 10.4688 14.6402 10.7385 13.9722 10.7385Z" fill="#364153"/>
</svg>
