<svg width="20" height="19" viewBox="0 0 20 19" fill="none" xmlns="http://www.w3.org/2000/svg">
<path d="M8.64286 5.83333C8.64286 5.56962 8.72245 5.31184 8.87158 5.09257C9.0207 4.87331 9.23266 4.70241 9.48064 4.60149C9.72863 4.50058 10.0015 4.47417 10.2648 4.52562C10.528 4.57707 10.7698 4.70405 10.9596 4.89052C11.1494 5.07699 11.2787 5.31457 11.3311 5.57321C11.3834 5.83185 11.3566 6.09994 11.2538 6.34358C11.1511 6.58721 10.9772 6.79545 10.754 6.94196C10.5308 7.08847 10.2684 7.16667 10 7.16667C9.64006 7.16667 9.29487 7.02619 9.04035 6.77614C8.78584 6.52609 8.64286 6.18696 8.64286 5.83333ZM4.57143 5.83333C4.57143 4.41885 5.14337 3.06229 6.16142 2.0621C7.17947 1.0619 8.56025 0.5 10 0.5C11.4397 0.5 12.8205 1.0619 13.8386 2.0621C14.8566 3.06229 15.4286 4.41885 15.4286 5.83333C15.4286 10.8292 10.5446 13.6283 10.3393 13.7458C10.2367 13.8034 10.1207 13.8337 10.0025 13.8337C9.88443 13.8337 9.76835 13.8034 9.6658 13.7458C9.45545 13.6283 4.57143 10.8333 4.57143 5.83333ZM5.92857 5.83333C5.92857 9.35 8.96857 11.6842 10 12.375C11.0306 11.685 14.0714 9.35 14.0714 5.83333C14.0714 4.77247 13.6425 3.75505 12.8789 3.00491C12.1154 2.25476 11.0798 1.83333 10 1.83333C8.92019 1.83333 7.88461 2.25476 7.12107 3.00491C6.35752 3.75505 5.92857 4.77247 5.92857 5.83333ZM16.3421 11.4692C16.1751 11.415 15.9932 11.4266 15.8347 11.5016C15.6763 11.5766 15.5536 11.7091 15.4927 11.8712C15.4318 12.0333 15.4373 12.2123 15.5081 12.3705C15.5789 12.5287 15.7094 12.6537 15.8722 12.7192C17.2726 13.2283 18.1429 13.91 18.1429 14.5C18.1429 15.6133 15.0452 17.1667 10 17.1667C4.95482 17.1667 1.85714 15.6133 1.85714 14.5C1.85714 13.91 2.72741 13.2283 4.12781 12.72C4.29059 12.6545 4.42114 12.5295 4.49194 12.3714C4.56274 12.2132 4.56825 12.0341 4.50731 11.872C4.44637 11.7099 4.32374 11.5774 4.16528 11.5024C4.00683 11.4274 3.82491 11.4158 3.6579 11.47C1.62134 12.2075 0.5 13.2842 0.5 14.5C0.5 17.0983 5.39504 18.5 10 18.5C14.605 18.5 19.5 17.0983 19.5 14.5C19.5 13.2842 18.3787 12.2075 16.3421 11.4692Z" fill="#364153"/>
</svg>
