<svg width="17" height="17" viewBox="0 0 17 17" fill="none" xmlns="http://www.w3.org/2000/svg">
<path d="M16.9035 15.5264C15.6599 13.4222 13.7436 11.9134 11.5071 11.1982C12.6134 10.5536 13.4729 9.57145 13.9536 8.40253C14.4343 7.23361 14.5097 5.94255 14.1682 4.72763C13.8267 3.51271 13.0872 2.4411 12.0631 1.67736C11.0391 0.913628 9.78731 0.5 8.49988 0.5C7.21245 0.5 5.96061 0.913628 4.93661 1.67736C3.91261 2.4411 3.17306 3.51271 2.83155 4.72763C2.49004 5.94255 2.56544 7.23361 3.04617 8.40253C3.5269 9.57145 4.38639 10.5536 5.49264 11.1982C3.25619 11.9126 1.33982 13.4214 0.0962569 15.5264C0.0506534 15.5992 0.0204049 15.6802 0.00729616 15.7646C-0.0058126 15.849 -0.00151609 15.9351 0.0199322 16.0179C0.0413805 16.1006 0.0795461 16.1783 0.132177 16.2464C0.184808 16.3145 0.250839 16.3716 0.326373 16.4143C0.401906 16.457 0.485414 16.4844 0.571968 16.4951C0.658522 16.5057 0.746369 16.4992 0.830326 16.476C0.914283 16.4529 0.992649 16.4135 1.0608 16.3602C1.12895 16.3069 1.18551 16.2408 1.22714 16.1658C2.76546 13.5637 5.48447 12.0101 8.49988 12.0101C11.5153 12.0101 14.2343 13.5637 15.7726 16.1658C15.8142 16.2408 15.8708 16.3069 15.939 16.3602C16.0071 16.4135 16.0855 16.4529 16.1694 16.476C16.2534 16.4992 16.3412 16.5057 16.4278 16.4951C16.5143 16.4844 16.5978 16.457 16.6734 16.4143C16.7489 16.3716 16.8149 16.3145 16.8676 16.2464C16.9202 16.1783 16.9584 16.1006 16.9798 16.0179C17.0013 15.9351 17.0056 15.849 16.9925 15.7646C16.9793 15.6802 16.9491 15.5992 16.9035 15.5264ZM3.92737 6.25614C3.92737 5.37101 4.19554 4.50576 4.69797 3.7698C5.20041 3.03383 5.91454 2.46022 6.75005 2.1215C7.58557 1.78277 8.50495 1.69414 9.39193 1.86683C10.2789 2.03951 11.0937 2.46574 11.7331 3.09162C12.3726 3.7175 12.8081 4.51493 12.9845 5.38305C13.161 6.25118 13.0704 7.15102 12.7243 7.96877C12.3782 8.78653 11.7922 9.48547 11.0402 9.97723C10.2883 10.469 9.40423 10.7315 8.49988 10.7315C7.28757 10.7302 6.12529 10.2583 5.26806 9.41926C4.41083 8.58026 3.92866 7.44268 3.92737 6.25614Z" fill="#364153"/>
</svg>
